# xmcd CD database file
# Copyright (C) 1993-1998 Ti Kan
#
# Track frame offsets:
#	150
#	20835
#	41845
#	61347
#	84520
#	103687
#	124490
#	147367
#	169047
#	199875
#	228317
#
# Disc length: 3310 seconds
#
# Revision: 1
# Processed by: cddbd v1.4b41PL1 Copyright (c) Steve Scherf et al.
# Submitted via: CDValet v3.31 - Copyright (c) 1997 Greg Leichner
#
DISCID=9e0cec0b
DTITLE=Josh Smith and The Frost - Too Damn Cold
DYEAR=1900
DGENRE=
TTITLE0=Wicked and Evil
TTITLE1=Too Damn Cold
TTITLE2=Booty
TTITLE3=Natural Disaster
TTITLE4=Hard World
TTITLE5=Packing Her Bags
TTITLE6=32 Degrees
TTITLE7=Love Addiction
TTITLE8=Driver
TTITLE9=Lights Are On, But Nobody's Home
TTITLE10=Shake and Bake
EXTD=Produced by Jum Gaines
EXTT0=
EXTT1=
EXTT2=
EXTT3=
EXTT4=
EXTT5=
EXTT6=
EXTT7=
EXTT8=
EXTT9=
EXTT10=
PLAYORDER=
